<svg xmlns="http://www.w3.org/2000/svg" viewBox="0 0 126.7 126.7"><g id="Layer_2" data-name="Layer 2"><g id="Layer_1-2" data-name="Layer 1"><path d="M126.7,63.35A63.35,63.35,0,1,1,63.35,0,63.35,63.35,0,0,1,126.7,63.35ZM57.14,100.19a18.36,18.36,0,0,0,13.69-9,70.73,70.73,0,0,1,5.22-7.42c7-9.27,15.81-20.73,8-36.27A23.8,23.8,0,0,0,62.92,34.16h-.15a21.24,21.24,0,0,0-19.1,11.76A16.76,16.76,0,0,0,48.5,67c3.93,2.86,8.24,2.93,11,.17a7.65,7.65,0,0,0,1.85-8.83c-.84-1.93-.83-3.59,0-4.67a2.75,2.75,0,0,1,2.58-1,3.86,3.86,0,0,1,2.84,2.78c1.79,4.75.18,9.15-6.65,18.09L58.3,75.94l4.77,3.64,1.82-2.39c7-9.15,10.5-16,7.5-23.84-1.39-3.68-4.15-6.09-7.57-6.61A8.75,8.75,0,0,0,56.61,50c-2.19,2.83-2.48,6.69-.8,10.69.32.76.33,1.34-.57,2.23-.62.63-2.09,0-3.19-.76a10.73,10.73,0,0,1-3-13.49,15.1,15.1,0,0,1,13.87-8.46,17.79,17.79,0,0,1,15.78,10c6.13,12.18-.76,21.2-7.42,29.93a72.26,72.26,0,0,0-5.67,8.11,12.48,12.48,0,0,1-9.06,6,8,8,0,0,1-7.15-3c-1.5-1.73-1.39-3.86-1.08-7.2.37-4,.87-9.53-4.85-13.16l-2.53-1.61-3.22,5.06L40.26,76c2.4,1.56,2.48,3.29,2.09,7.56-.3,3.53-.73,7.92,2.51,11.67a14.08,14.08,0,0,0,10.81,5.09A14.54,14.54,0,0,0,57.14,100.19ZM76.86,32.38l2.57-9.16L73.65,21.6l-2.56,9.16Zm7.71,5.28,8.18-10.31-4.7-3.73L79.87,33.93Zm5.29,8L101.53,38l-3.3-5L86.56,40.66Zm2.21,9.54,10.61-2-1.1-5.9L91,49.31Z" fill="#465fff"/></g></g></svg>